# xmcd
#
# Track frame offsets: 
#        150
#        15497
#        31577
#        44052
#        58547
#        73937
#        88420
#        103712
#        123782
#        137577
#        156795
#        171425
#
# Disc length: 2433 seconds
#
# Revision: 1
# Processed by: cddbd v1.5.2PL0 Copyright (c) Steve Scherf et al.
# Submitted via: ExactAudioCopy v0.99pb5
#
DISCID=a1097f0c
DTITLE=Vida - Sangre Para Ti
DYEAR=2000
DGENRE=Latin
TTITLE0=Esa Mujer
TTITLE1=Dime Como Vivire
TTITLE2=Ay Corazon
TTITLE3=Cumbia Carrito
TTITLE4=Ya No Vuelvas
TTITLE5=Mi Amigo Jose
TTITLE6=Dime 
TTITLE7=Pensando En Ti
TTITLE8=Vueltas Y Vueltas
TTITLE9=El Coyote
TTITLE10=Por Amor
TTITLE11=Besitos De Mil Sabores
EXTD=
EXTT0=
EXTT1=
EXTT2=
EXTT3=
EXTT4=
EXTT5=
EXTT6=
EXTT7=
EXTT8=
EXTT9=
EXTT10=
EXTT11=
PLAYORDER=
